<?xml version="1.0" encoding="utf-8"?>
<svg xmlns="http://www.w3.org/2000/svg" viewBox="253 208 336 150" role="img" aria-label="Stéphanie Garcia">
<g fill="#2c2925">
	<g>
		<path d="M395.6,257.5c8.7-5.9,19.2-8.6,29.6-7c6.9,1,15.5,5.6,17.5,25c1.2,12,15.6,12.1,23.8,9.4
			c2.1-0.7,4.1-1.5,6.1-2.5c5.7-2.6,11.3-2.3,17,0c7.1,2.8,19.3-3.9,20.8-11.3c1.2-5.9-4.2-11.6-10.1-10.2c-3,0.7-5.9,2.5-8.4,4.3
			c-3.6,2.6-6.7,2.7-9.3-1c-1.6-2.3-2.8-5-3.7-7.7c-5.1-16.4-13.3-23.1-15.4-24.9c-2.3-1.9-5-3.6-6.4-6c-3.9-6.4-9.5-8.2-16.4-7.6
			c-8.3,0.8-15.4,5.1-22.7,8.6c0,0-23.2,14.7-44.5,14.3c-21.4-0.4-41.6,0-42,18.6c-0.4,18.7,10.9,21.5,17.5,21.3
			C367.7,280.2,382.5,266.4,395.6,257.5z"/>
		<path d="M507.7,253c0.1-4.6-2.8-7.6-7.4-7.6c-5,0-9.4,3.6-9.6,7.9c-0.2,3.4,3.4,6.1,8.1,6.1C504,259.5,507.6,256.9,507.7,253z"/>
		<path d="M496.9,233.8c-4-2.2-8.9-0.6-11.4,3.7c-2.7,4.5-0.4,10,5.1,9.3c2.6-0.3,5-1.6,7.1-3C501.6,241.1,501.1,236.1,496.9,233.8z"/>
		<path d="M488.3,229.9c0.1-3.4-2.9-6.4-6.6-6.6c-4.4-0.3-8.5,2.5-8.8,6c-0.3,3.3,3,6.2,7.4,6.6C484.4,236.2,488.2,233.3,488.3,229.9z"/>
		<path d="M473.7,220.5c0-3.2-2.3-5.3-6.1-5.4c-4.3-0.1-7.4,2.2-7.5,5.4c0,2.9,3.1,5.8,6.5,6C470.3,226.6,473.7,223.7,473.7,220.5z"/>
	</g>
	<path d="M259,335.8c2.6,0.2,4.8,0.2,8.1-0.1c-0.2,2.2-0.3,3.9,0,6.1c0.2,1.5,1,1.7,1.7,1.7c0.9,0,1.7-0.4,1.7-1.7
		c0.1-1,0.1-3.3-0.1-4.8c-0.2-1.5-1.1-2.4-3.1-3.1c-4.1-1.5-7.4-3.1-8.5-6.7c-0.8-2.6-0.9-9.9-0.4-14.4c0.8-7.3,4.3-8.5,11.6-8.5
		c6.4,0,7.7,2,7.7,7.9c0,3.9,0.1,7,0.4,11.1c-4.5-0.4-8.6,0-8.6,0c0.2-3,0.2-5.3,0.1-8c-0.1-1.5-0.6-2-1.4-2c-0.7,0-1.2,0.4-1.4,1.7
		c-0.4,2-0.6,5.2-0.4,7.8c0.2,1.9,1,3,2.7,3.7c5.9,2.5,7.8,3.9,8.6,7.7c0.6,2.7,0.6,6.2,0.4,10c-0.3,4.8-3.3,6.5-8.4,6.5
		c-7.7,0-9.9-2.2-10.4-7.1C258.8,341.6,259.1,338.8,259,335.8z"/>
	<path d="M299.7,305.7c0,0,0.2,4.5,0.1,8.9c-1.8-0.2-2.8-0.2-4.3,0c-1.5,0.2-1.9,0.7-1.9,2c-0.1,10.5,0.2,23.1,0.7,32.6
		c0,0.1-5.7,0.1-9.4-0.1c0.4-8.5,0.7-21.6,0.6-32.6c0-1.4-0.4-1.9-1.9-2c-1.2-0.2-2.4-0.2-4.3,0c-0.1-4.4,0.3-8.9,0.3-8.9
		C286.4,305.5,293.1,305.5,299.7,305.7z"/>
	<path d="M310,333.5c-0.2,1.7-0.1,4.3,0.1,5.7c0.2,1.4,0.7,1.8,2,1.9c1.7,0.1,4.5-0.2,6.5-0.7c0,0,0.2,4.4,0.1,8.8
		c-2.4,0.6-5.7,1-8.1,1c-6.4,0-8.1-3.1-8.5-8.6c-0.6-8.2-0.4-25.4,0.3-35.7c5.1-0.3,10.7-0.4,15.9-0.1c0,0,0.2,4.1,0.2,8.9
		c-2.3-0.2-5.4-0.2-7,0c-1.4,0.2-1.7,0.9-1.9,2c-0.2,2-0.2,4.6-0.1,6.6c0.1,1.4,0.6,2,1.9,2.4c1.3,0.4,3.9,0.6,6,0.4
		c0,0-0.1,3.6,0.1,6.8C317.3,332.9,313.4,332.9,310,333.5z M317.3,295.3c-0.6,2.2-2.3,5.4-3.9,7.1c-1.2,1.3-2.7,1.8-4.5,1.4
		c-0.8-0.2-2.2-0.8-3.3-1.7c1.9-3.3,2.7-4.8,2.7-4.8c0.7,0.5,1.7,0.7,2.5,0c0.8-0.7,1.7-2.1,2.3-3.8C313,293.5,314.4,294.2,317.3,295.3z"/>
	<path d="M328.4,336.3c0.1,5.1,0.2,9.7,0.3,13.4c-4.1-0.2-8.1-0.1-8.1-0.1c0.7-10.9,0.6-32.8-0.2-44.4
		c1.9-0.6,5.9-0.7,7.7-0.8c6.8,0,9.7,1.7,11,6.6c1.6,6.2,1.6,15.3-0.2,20.4C337.7,334.5,334.5,336.2,328.4,336.3z M328.4,329.2
		c1.7,0.1,2.8-0.5,3.1-1.7c0.5-1.9,0.7-7.2,0.4-11.1c-0.2-1.9-1.2-2.3-3.5-2.2C328.3,318.3,328.3,323.7,328.4,329.2z"/>
	<path d="M363,349.7c0,0-3.8-0.1-8.1,0.2c0.2-5.7,0.2-11.9-0.1-15.6c-0.1-1.4-0.7-2.2-2.2-2.3c-1.2-0.1-1.7,0.6-1.8,1.6
		c-0.2,4.4,0,10.4,0.2,15.7c0,0-4.8-0.4-9-0.4c0.6-10.3,0.6-30.4,0.4-43.9c4.1,0,8.5-0.3,8.5-0.3c-0.3,6.3-0.5,13.6-0.2,17.7
		c0.1,2,1,3,4.3,2.7c0.2-4,0.1-13.5-0.2-19.6c0,0,4.1,0.3,8.2,0.3C362.6,318.6,362.7,338.3,363,349.7z"/>
	<path d="M378.7,339.4c-3.8-0.3-4.8,0.2-5.2,2.8c-0.3,1.8-0.4,4.4-0.3,6.3c0,0-3.6,0-7.8-0.2c1.2-9.6,3.1-25.9,3.7-32.4
		c0.2-2.2-0.3-2.7-2.7-2.3c-0.3-3.9-0.3-7.6-0.3-7.6c5.5-0.6,12.2-0.9,17.3-1c1.1,9.9,3.4,33.8,4.2,43.4c0,0-4.1,0.4-8.4,0.6
		C379.1,346.6,379,341.9,378.7,339.4z M375.9,314.2c-0.9,3.9-1.8,12.4-1.6,15.9c0.1,1.8,0.7,2.4,2.2,2.4c1.1,0,1.7-0.6,1.7-1.7
		c0-4-0.7-13-1.4-16.7C376.7,313.4,376.1,313.4,375.9,314.2z"/>
	<path d="M412.4,348.8c-1.2,0.6-3.7,0.9-5.6,0.9c-4.4,0-5.9-1.6-6.6-5.4c-1.6-8.9-2.3-17.7-3.9-28
		c-0.1,9.8,0.4,23.3,0.9,32.8c0,0.1-3.8,0-7.5-0.1c0.4-11.3,0.7-32.4,0.6-43.2c2.3-0.3,8.7-0.4,11.1-0.4c1.9,11.9,2.7,21.2,5.2,35.4
		c-0.2-10.7-0.8-26.2-1.7-34.7c3.8-0.1,7.3,0.2,7.3,0.1C412,317.2,412,336.1,412.4,348.8z"/>
	<path d="M420.9,303.5c3.5,0,5.3,2.4,5.3,5.6c0,3.6-2.3,6-6,6c-3.6,0-5.6-2.3-5.6-5.5C414.6,306,417,303.5,420.9,303.5z
		 M416.5,317.3c4,0.2,8.1,0.2,8.1,0.2c-0.1,8.9-0.2,22.3,0.4,31.2c-4.3,0.1-8.9,0.3-8.9,0.3C416.4,339.8,416.7,326.5,416.5,317.3z"/>
	<path d="M437.8,350.1c-6,0-8.3-2.3-9.2-7.3c-1.5-7.9-1.2-21.5,0.2-29.9c1.1-6.7,3.9-9,8.6-9c7.4,0,9.9,3.8,10.1,10.6
		c0.2,6.4-0.6,13.2-0.1,18c-3.4,0.5-8.1,0.7-11.7,0.6c0.1,2.5,0.2,4.7,0.5,6c0.3,1.7,1.2,2.2,3.1,2.2c2.3,0,5.2-0.6,7.7-1.5
		c0,0-0.3,4.8-0.2,8.8C444.3,349.6,441.1,350.1,437.8,350.1z M438,326.2c1.2-0.1,1.7-0.6,1.9-2c0.2-2.7,0.3-5.7,0.2-8.5
		c-0.1-2.2-0.2-3-1.9-3c-0.8,0-1.3,0.4-1.5,1.7c-0.6,2.8-0.8,7.3-0.9,11.9C436.3,326.4,437.2,326.3,438,326.2z"/>
	<path d="M470.7,304c6,0,7.7,2,8,6.7c0.2,4.1-0.2,8.4,0.1,13.1c0,0-3.9-0.3-7.7,0.1c0.2-2.7,0.2-6.8,0.1-9.1
		c-0.1-1-0.5-1.4-1.4-1.4c-1,0-1.5,0.6-1.8,1.8c-1.2,5.6-1.5,19.1-0.6,24.6c0.4,2.1,1,2.7,2.3,2.7c1.3,0,2-1.4,2-4
		c0.1-2.1-0.6-2.8-2.4-2.4c0.1-3.1-0.1-6.4-0.1-6.4c3.1-0.2,6.5-0.2,9.7-0.2c-0.4,3.5-0.6,8.2-0.4,10.6c0.1,1.3,0.7,1.7,1.9,1.5
		c0,0-0.3,3.8-0.4,7.3c-3.9,0.9-6.1,0-6.8-2.5c-0.6,2.5-2.3,4.1-6.2,4.1c-4.3,0-6.7-2.9-7.6-8c-1.2-7.3-1.3-20.9,0.5-29
		C461.6,306.6,464.5,304,470.7,304z"/>
	<path d="M495.8,339.4c-3.8-0.3-4.8,0.2-5.2,2.8c-0.3,1.8-0.4,4.4-0.3,6.3c0,0-3.6,0-7.8-0.2c1.2-9.6,3.1-25.9,3.7-32.4
		c0.2-2.2-0.3-2.7-2.7-2.3c-0.3-3.9-0.3-7.6-0.3-7.6c5.5-0.6,12.2-0.9,17.3-1c1.1,9.9,3.4,33.8,4.2,43.4c0,0-4.1,0.4-8.4,0.6
		C496.2,346.6,496.1,341.9,495.8,339.4z M493,314.2c-0.9,3.9-1.8,12.4-1.6,15.9c0.1,1.8,0.7,2.4,2.2,2.4c1.1,0,1.7-0.6,1.7-1.7
		c0-4-0.7-13-1.4-16.7C493.8,313.4,493.2,313.4,493,314.2z"/>
	<path d="M514.5,331.3c0.1,4.6,0.4,10.2,0.7,18.5c-5.6-0.4-8.6-0.3-8.6-0.3c0.6-14.8-0.3-33.4-0.7-43.4
		c3.8-1.1,8.9-1.9,12.3-1.9c6.8,0,9.3,1.9,9.3,12.2c0,8.5-1.9,11.2-6.5,11.7c1.5,0.2,2.5,0.8,3.4,1.6c1.4,1.3,1.9,4.2,1.7,9.3
		c-0.1,1.8,0.6,2.6,2.1,2.5c-0.3,3.1-0.4,5.7-0.4,8.7c-5.1,0.8-8.3-0.4-8.9-4c-0.7-3.9,0.4-8.6-0.2-11.7
		C518.1,332.4,516.6,331.5,514.5,331.3z M514.4,324c2.9,0.4,4.3-0.1,4.9-1.7c0.6-1.3,0.6-5.3,0.2-6.6c-0.6-1.7-2.2-2.2-5-1.6
		C514.4,317.9,514.4,320.9,514.4,324z"/>
	<path d="M548.8,321.7c-3.2,0.1-7.5,0.4-7.5,0.4c0.1-2.3,0-5.3-0.1-7.1c-0.1-0.9-0.4-1.4-1.3-1.4c-1,0-1.6,0.7-1.7,1.9
		c-0.8,6.8-1,18.6,0.1,24.2c0.3,1.5,1,2,2,2c0.7,0,1.2-0.3,1.4-1.2c0.2-2,0.1-5.2-0.1-7.7c3.3,0.1,7-0.1,7-0.1
		c-0.3,3.5,0.1,7.8-0.2,11.4c-0.4,4.1-3.3,6-7.7,6c-5.8,0-8.4-2.2-9.8-7.8c-2-8.1-1.8-23-0.6-29.9c1-6.2,3.8-8.2,10-8.2
		c5.4,0,7.8,2.1,8.1,7.3C548.5,314.8,548.4,318.4,548.8,321.7z"/>
	<path d="M556.2,303.5c3.5,0,5.3,2.4,5.3,5.6c0,3.6-2.3,6-6,6c-3.6,0-5.6-2.3-5.6-5.5C549.9,306,552.3,303.5,556.2,303.5z
		 M551.8,317.3c4,0.2,8.1,0.2,8.1,0.2c-0.1,8.9-0.2,22.3,0.4,31.2c-4.3,0.1-8.9,0.3-8.9,0.3C551.7,339.8,552,326.5,551.8,317.3z"/>
	<path d="M564,326.4c0.2-4-0.4-9.4,0-13.4c0.6-6.4,4.7-8.8,10.6-8.8c4.6,0,7.1,2.2,7.7,7.2c0.9,8.2-0.4,23.1-0.1,27.7
		c0.1,1.6,0.7,2.2,2.2,2c0,0.1-0.4,4.3-0.2,8.7c-4,0.5-7-0.6-7.8-4.6c-1.5,2.7-4.1,4.4-7.4,4.4c-3.4,0-5.5-1.7-6.1-5.4
		c-0.3-1.9-0.4-4.4-0.2-6.4c0.4-4.5,1.9-6.6,7.1-8.1c4.3-1.2,5.3-2.6,5.6-5.4c0.2-1.9,0.2-5.6,0-7.8c-0.1-1.9-0.7-2.8-2-2.8
		c-1,0-1.5,0.9-1.6,2.2c-0.2,2.9-0.2,6.7,0.1,9.5C571.7,325.4,567.9,325.6,564,326.4z M572.8,335.3c-2.2,1-2.7,2-2.7,4.1
		c0,1.6,0.8,2.1,1.7,2.1c2.4,0,3.5-2.7,3.3-8C574.6,334.2,573.8,334.8,572.8,335.3z"/>
</g>
</svg>
